<?xml version="1.0" encoding="UTF-8"?>
<svg version="1.1" xmlns="http://www.w3.org/2000/svg" width="512" height="512">
<path d="M0 0 C13.28481987 12.14172217 22.34470217 26.9876752 23.22924805 45.24926758 C24.02258364 72.23612413 14.24304939 92.99678074 -3.9543457 112.64379883 C-5.01008789 113.76334961 -5.01008789 113.76334961 -6.0871582 114.90551758 C-6.62598633 115.49719727 -7.16481445 116.08887695 -7.7199707 116.69848633 C-18.7053264 128.31867414 -32.89518504 137.16789277 -45.97924805 146.21362305 C-63.07920567 158.04636865 -81.24575286 170.94025762 -85.64575195 192.66333008 C-88.22293093 212.58997166 -77.65732291 230.95355474 -68.95245361 248.07989502 C-55.28682811 274.9697394 -44.60714779 303.67315905 -54.34204102 333.8527832 C-57.76251535 343.2758986 -62.55669307 352.28085217 -69.0871582 359.90551758 C-69.5718457 360.54360352 -70.0565332 361.18168945 -70.5559082 361.83911133 C-77.99641886 371.19445929 -88.97587096 377.8103006 -100.0871582 381.90551758 C-101.10036133 382.29739258 -102.11356445 382.68926758 -103.1574707 383.09301758 C-129.82501396 391.84045774 -160.33209935 384.89866317 -184.74194336 372.68041992 C-192.19118844 368.82227782 -198.89630125 364.62015477 -205.0871582 358.90551758 C-206.53155273 357.5984082 -206.53155273 357.5984082 -208.00512695 356.26489258 C-235.42686565 330.65991503 -244.98280881 291.92469575 -250.2746582 256.09301758 C-250.42966797 255.05242187 -250.58467773 254.01182617 -250.74438477 252.93969727 C-253.53317957 232.77409823 -254.4874639 212.35629811 -255.2746582 192.03051758 C-255.31763031 190.9332132 -255.36060242 189.83590881 -255.40487671 188.70535278 C-257.43426738 135.32007156 -257.14588647 74.13651114 -221.0871582 30.90551758 C-220.44262695 30.11016602 -219.7980957 29.31481445 -219.1340332 28.49536133 C-200.59725058 6.53002744 -171.14850217 -8.02114483 -144.0871582 -16.09448242 C-143.29889648 -16.33247559 -142.51063477 -16.57046875 -141.69848633 -16.81567383 C-136.20387926 -18.44441623 -130.67908449 -19.84255863 -125.0871582 -21.09448242 C-124.37350098 -21.25964355 -123.65984375 -21.42480469 -122.92456055 -21.5949707 C-84.65669966 -30.0455351 -30.8212706 -26.5613823 0 0 Z M-195.7121582 49.12426758 C-234.99414174 95.12553777 -226.60701748 169.31256716 -222.38745117 225.20581055 C-219.18438659 264.66860781 -213.4529234 308.87797076 -182.7746582 337.09301758 C-175.44373173 343.02121552 -167.29535684 347.07210763 -158.4621582 350.21801758 C-157.78233887 350.46036133 -157.10251953 350.70270508 -156.40209961 350.95239258 C-147.53025657 353.95706365 -138.94252712 355.25256473 -129.5871582 355.21801758 C-128.71446289 355.23413086 -127.84176758 355.25024414 -126.94262695 355.2668457 C-114.53727239 355.27603485 -104.08784451 350.67311489 -94.8996582 342.40551758 C-85.02053228 331.98534419 -81.5875145 318.70558148 -81.84887695 304.75708008 C-82.9279536 287.31495591 -91.99161798 272.00913149 -99.7121582 256.71801758 C-108.07817636 240.1204755 -116.21959283 222.81121306 -117.0871582 203.90551758 C-117.1387207 203.17977539 -117.1902832 202.4540332 -117.2434082 201.70629883 C-118.0799995 180.61722652 -108.76346444 161.08610021 -94.8371582 145.71801758 C-85.6884319 135.99609882 -75.36756918 128.25220094 -64.32104492 120.81640625 C-43.33353549 106.6817476 -22.7168693 91.94654144 -11.0871582 68.90551758 C-10.70301758 68.14754883 -10.31887695 67.38958008 -9.9230957 66.60864258 C-6.68202933 58.79373486 -6.78012558 48.22964483 -8.77856445 40.08911133 C-9.70940472 37.84964206 -10.7563089 35.93072303 -12.0871582 33.90551758 C-12.52286133 33.21200195 -12.95856445 32.51848633 -13.4074707 31.80395508 C-21.41103104 20.12662934 -34.4693613 15.11059493 -47.5871582 11.15551758 C-48.2380542 10.95692139 -48.8889502 10.7583252 -49.55957031 10.55371094 C-61.28086691 7.20661206 -73.08877259 6.52797273 -85.2121582 6.59301758 C-86.29998596 6.59625031 -86.29998596 6.59625031 -87.40979004 6.59954834 C-126.66222328 6.78630019 -167.95056614 20.29492197 -195.7121582 49.12426758 Z " fill="#000000" transform="translate(381.087158203125,126.094482421875)"/>
<path d="M0 0 C0.96381592 0.00684814 1.92763184 0.01369629 2.9206543 0.02075195 C10.24002684 0.18551652 16.47944656 1.22565859 23.125 4.4375 C23.90488281 4.788125 24.68476563 5.13875 25.48828125 5.5 C39.98568554 12.7111441 48.837962 25.53766564 54.125 40.4375 C57.50391154 52.03403355 56.44735897 67.71404893 51.125 78.4375 C50.62742187 79.44941406 50.12984375 80.46132812 49.6171875 81.50390625 C42.26894712 95.1579622 31.04150623 104.2570051 16.36328125 109.13671875 C10.96878134 110.66124024 5.83291726 110.93720657 0.25 110.875 C-1.19898682 110.86255249 -1.19898682 110.86255249 -2.67724609 110.84985352 C-10.01187137 110.67639537 -16.24121994 109.73003694 -22.875 106.4375 C-23.88691406 105.93992187 -24.89882813 105.44234375 -25.94140625 104.9296875 C-39.5954622 97.58144712 -48.6945051 86.35400623 -53.57421875 71.67578125 C-55.09874024 66.28128134 -55.37470657 61.14541726 -55.3125 55.5625 C-55.30420166 54.59650879 -55.29590332 53.63051758 -55.28735352 52.63525391 C-55.11389537 45.30062863 -54.16753694 39.07128006 -50.875 32.4375 C-50.12863281 30.91962891 -50.12863281 30.91962891 -49.3671875 29.37109375 C-42.01894712 15.7170378 -30.79150623 6.6179949 -16.11328125 1.73828125 C-10.71848271 0.21367536 -5.58312254 -0.06124531 0 0 Z M-18.75 39.375 C-24.05841766 47.02536663 -24.96879999 53.23306989 -23.875 62.4375 C-21.40860576 69.81560244 -16.73251992 74.212217 -10.10546875 78.03515625 C-3.76001167 80.7897138 3.53697309 80.70386244 10.046875 78.40625 C16.91785961 74.65844022 20.68396188 69.31957623 24.125 62.4375 C24.94033856 53.66678661 24.82680582 46.45625834 19.125 39.4375 C14.94072943 34.98400022 9.87868932 31.82488888 3.79296875 30.96875 C-5.60468793 30.88437149 -12.32669859 32.19378692 -18.75 39.375 Z " fill="#000000" transform="translate(397.875,1.5625)"/>
<path d="M0 0 C9.47463573 6.94911196 16.95161439 16.64389635 19.421875 28.35546875 C20.71840454 42.36291128 19.58515159 54.65161646 11.046875 66.29296875 C3.79710687 74.80019131 -6.14121373 82.4819878 -17.66186523 83.54833984 C-32.20672027 84.0750382 -44.10662342 82.99872375 -55.65625 73.15625 C-63.78698313 65.53781916 -70.43729869 55.48683287 -70.8515625 44.046875 C-71.2686331 29.19654597 -69.07220246 17.55522171 -58.578125 6.35546875 C-43.56002846 -9.51550735 -18.09084176 -11.53976422 0 0 Z M-38.453125 30.48046875 C-40.14296751 34.79895517 -40.23773483 38.78217395 -39.578125 43.35546875 C-37.41513663 47.76155618 -35.18132021 50.55421845 -30.578125 52.35546875 C-25.53487116 53.03972932 -21.74735616 52.92945495 -17.140625 50.66796875 C-13.78156488 47.63662181 -11.88456869 45.61407227 -11.26171875 41.0234375 C-10.99598848 35.30595066 -11.60965348 31.75296422 -15.578125 27.35546875 C-19.41525696 23.96976408 -23.21213962 23.84255703 -28.140625 24.00390625 C-32.80338646 24.67641992 -35.43002792 27.05429206 -38.453125 30.48046875 Z " fill="#000000" transform="translate(129.578125,96.64453125)"/>
<path d="M0 0 C9.47463573 6.94911196 16.95161439 16.64389635 19.421875 28.35546875 C20.71840454 42.36291128 19.58515159 54.65161646 11.046875 66.29296875 C3.79710687 74.80019131 -6.14121373 82.4819878 -17.66186523 83.54833984 C-32.20672027 84.0750382 -44.10662342 82.99872375 -55.65625 73.15625 C-63.78698313 65.53781916 -70.43729869 55.48683287 -70.8515625 44.046875 C-71.2686331 29.19654597 -69.07220246 17.55522171 -58.578125 6.35546875 C-43.56002846 -9.51550735 -18.09084176 -11.53976422 0 0 Z M-38.453125 30.48046875 C-40.14296751 34.79895517 -40.23773483 38.78217395 -39.578125 43.35546875 C-37.41513663 47.76155618 -35.18132021 50.55421845 -30.578125 52.35546875 C-25.53487116 53.03972932 -21.74735616 52.92945495 -17.140625 50.66796875 C-13.78156488 47.63662181 -11.88456869 45.61407227 -11.26171875 41.0234375 C-10.99598848 35.30595066 -11.60965348 31.75296422 -15.578125 27.35546875 C-19.41525696 23.96976408 -23.21213962 23.84255703 -28.140625 24.00390625 C-32.80338646 24.67641992 -35.43002792 27.05429206 -38.453125 30.48046875 Z " fill="#000000" transform="translate(209.578125,31.64453125)"/>
<path d="M0 0 C9.47463573 6.94911196 16.95161439 16.64389635 19.421875 28.35546875 C20.71840454 42.36291128 19.58515159 54.65161646 11.046875 66.29296875 C3.79710687 74.80019131 -6.14121373 82.4819878 -17.66186523 83.54833984 C-32.20672027 84.0750382 -44.10662342 82.99872375 -55.65625 73.15625 C-63.78698313 65.53781916 -70.43729869 55.48683287 -70.8515625 44.046875 C-71.2686331 29.19654597 -69.07220246 17.55522171 -58.578125 6.35546875 C-43.56002846 -9.51550735 -18.09084176 -11.53976422 0 0 Z M-38.453125 30.48046875 C-40.14296751 34.79895517 -40.23773483 38.78217395 -39.578125 43.35546875 C-37.41513663 47.76155618 -35.18132021 50.55421845 -30.578125 52.35546875 C-25.53487116 53.03972932 -21.74735616 52.92945495 -17.140625 50.66796875 C-13.78156488 47.63662181 -11.88456869 45.61407227 -11.26171875 41.0234375 C-10.99598848 35.30595066 -11.60965348 31.75296422 -15.578125 27.35546875 C-19.41525696 23.96976408 -23.21213962 23.84255703 -28.140625 24.00390625 C-32.80338646 24.67641992 -35.43002792 27.05429206 -38.453125 30.48046875 Z " fill="#000000" transform="translate(310.578125,6.64453125)"/>
</svg>
